<?xml version="1.0" encoding="utf-8"?>
<!-- Generator: Adobe Illustrator 18.0.0, SVG Export Plug-In . SVG Version: 6.00 Build 0)  -->
<!DOCTYPE svg PUBLIC "-//W3C//DTD SVG 1.1//EN" "http://www.w3.org/Graphics/SVG/1.1/DTD/svg11.dtd">
<svg version="1.1" id="Ebene_1" xmlns="http://www.w3.org/2000/svg" xmlns:xlink="http://www.w3.org/1999/xlink" x="0px" y="0px"
	 viewBox="0 0 120.7 41.7" enable-background="new 0 0 120.7 41.7" xml:space="preserve">
<g>
	<path fill="#16385D" d="M7.3,28.4v11.4H2V9h8c3.1,0,4.6,1.4,4.6,4.9v9.9C14.5,27.7,13.1,28.4,7.3,28.4z M9.1,13.9
		c0-0.6-0.4-1-0.8-1H7.3v11.4h0.9c0.4,0,0.9-0.3,0.9-0.9V13.9z"/>
	<path fill="#16385D" d="M21.2,39.8h-5V15.3h4.5l0.4,0.8c1.1-0.8,2.1-1.1,3-1.1c2.1,0,3.5,0.8,3.5,4.6v5.7h-4.8v-5.6
		c0-0.6-0.3-1-0.8-1c-0.4,0-0.8,0.3-0.8,1V39.8z"/>
	<path fill="#16385D" d="M35.5,30.7h4.8V35c0,3.7-1.1,4.9-4.1,4.9h-2.7c-3.1,0-4.5-1.4-4.5-4.9V20c0-3.6,1.3-4.9,4.2-4.9h2.5
		c3.1,0,4.6,1.4,4.6,4.9v8.6H34v6.9c0,0.6,0.3,1,0.8,1c0.4,0,0.8-0.3,0.8-1V30.7z M34,25.4h1.6v-5.8c0-0.6-0.3-0.9-0.8-0.9
		c-0.4,0-0.8,0.3-0.8,0.9V25.4z"/>
	<path fill="#16385D" d="M47.2,13.6h-5V9h5V13.6z M42.3,15.3h5v24.6h-5V15.3z"/>
	<path fill="#16385D" d="M55.3,32c0-3.6-6.5-3.6-6.5-8.8V20c0-3.6,1.3-4.9,4.3-4.9h2.7c3.1,0,4.4,1.4,4.4,4.9v3.4h-4.8v-3.9
		c0-0.6-0.3-0.9-0.8-0.9c-0.4,0-0.8,0.3-0.8,0.9v2.8c0,3.5,6.6,3.3,6.6,9.1v3.7c0,3.6-1.3,4.9-4.3,4.9h-2.7c-3.1,0-4.4-1.4-4.4-4.9
		v-4.2h4.8v4.6c0,0.6,0.3,0.9,0.8,0.9c0.4,0,0.8-0.3,0.8-0.9V32z"/>
	<path fill="#16385D" d="M66.7,39.8h-5v-4.6h5V39.8z"/>
	<path fill="#16385D" d="M68.6,19.6c0-3.8,1.6-4.6,3.6-4.6c0.9,0,2.1,0.4,2.9,1.2V9h5v30.8h-4.6l-0.4-1c-0.8,0.8-2,1.2-2.9,1.2
		c-2.1,0-3.6-0.8-3.6-4.7V19.6z M75.2,19.7c0-0.6-0.4-1-0.8-1c-0.4,0-0.8,0.3-0.8,1v15.7c0,0.6,0.3,0.9,0.8,0.9
		c0.4,0,0.8-0.3,0.8-0.9V19.7z"/>
	<path fill="#16385D" d="M88.5,30.7h4.8V35c0,3.7-1.1,4.9-4.1,4.9h-2.7c-3.1,0-4.5-1.4-4.5-4.9V20c0-3.6,1.3-4.9,4.2-4.9h2.5
		c3.1,0,4.6,1.4,4.6,4.9v8.6H87v6.9c0,0.6,0.3,1,0.8,1c0.4,0,0.8-0.3,0.8-1V30.7z M87,25.4h1.6v-5.8c0-0.6-0.3-0.9-0.8-0.9
		c-0.4,0-0.8,0.3-0.8,0.9V25.4z"/>
</g>
<g>
	<path fill="#E3077D" d="M112.9,12.7c-0.2,0.1-0.4,0.3-0.7,0.3H97.1c-0.2,0-0.4-0.2-0.4-0.4V1.7c0-0.2,0.2-0.4,0.4-0.4h15.1
		c0.2,0,0.5,0.1,0.7,0.3l5.5,5.5c0.1,0.1,0.1,0.4,0,0.5L112.9,12.7z"/>
</g>
<g>
	<path fill="#9AC439" d="M112.7,26.4c-0.2,0.1-0.5,0.3-0.7,0.3H97c-0.2,0-0.4-0.2-0.4-0.4V15.3c0-0.2,0.2-0.4,0.4-0.4h15.1
		c0.2,0,0.5,0.1,0.7,0.3l5.8,5.5c0.2,0.1,0.1,0.4,0,0.5L112.7,26.4z"/>
</g>
<g>
	<path fill="#F8C210" d="M112.7,40c-0.2,0.1-0.5,0.3-0.7,0.3H97c-0.2,0-0.4-0.2-0.4-0.4V29c0-0.2,0.2-0.4,0.4-0.4h15.1
		c0.2,0,0.5,0.1,0.7,0.3l5.6,5.5c0.2,0.1,0.1,0.4,0,0.5L112.7,40z"/>
</g>
</svg>
